<svg xmlns="http://www.w3.org/2000/svg" xmlns:xlink="http://www.w3.org/1999/xlink" xmlns:lucid="lucid" width="1746" height="1271"><g transform="translate(-440 -200)" lucid:page-tab-id="0_0"><path d="M1240 226a6 6 0 0 1 6-6h148a6 6 0 0 1 6 6v114a6 6 0 0 1-6 6h-148a6 6 0 0 1-6-6z" stroke="#3a414a" fill="#fff"/><use xlink:href="#a" transform="matrix(1,0,0,1,1248,228) translate(47.98765432098766 59.44444444444444)"/><path d="M520 526a6 6 0 0 1 6-6h348a6 6 0 0 1 6 6v506a6 6 0 0 1-6 6H526a6 6 0 0 1-6-6z" stroke="#3a414a" fill="#fff"/><path d="M520 562.67h360m-360 197.5h360" stroke="#3a414a" fill="none"/><use xlink:href="#b" transform="matrix(1,0,0,1,528,528) translate(136.84567901234567 17.944444444444443)"/><use xlink:href="#c" transform="matrix(1,0,0,1,532,570.6666666666666) translate(0 28.77777777777778)"/><use xlink:href="#d" transform="matrix(1,0,0,1,532,570.6666666666666) translate(13.518518518518519 28.77777777777778)"/><use xlink:href="#c" transform="matrix(1,0,0,1,532,570.6666666666666) translate(0 55.44444444444445)"/><use xlink:href="#e" transform="matrix(1,0,0,1,532,570.6666666666666) translate(13.518518518518519 55.44444444444445)"/><use xlink:href="#c" transform="matrix(1,0,0,1,532,570.6666666666666) translate(0 82.11111111111111)"/><use xlink:href="#f" transform="matrix(1,0,0,1,532,570.6666666666666) translate(13.518518518518519 82.11111111111111)"/><use xlink:href="#c" transform="matrix(1,0,0,1,532,570.6666666666666) translate(0 108.77777777777777)"/><use xlink:href="#g" transform="matrix(1,0,0,1,532,570.6666666666666) translate(13.518518518518519 108.77777777777777)"/><use xlink:href="#h" transform="matrix(1,0,0,1,532,570.6666666666666) translate(0 135.44444444444446)"/><use xlink:href="#i" transform="matrix(1,0,0,1,532,570.6666666666666) translate(0 162.11111111111111)"/><use xlink:href="#j" transform="matrix(1,0,0,1,532,768.1666666666666) translate(0 28.777777777777793)"/><use xlink:href="#k" transform="matrix(1,0,0,1,532,768.1666666666666) translate(19.1358024691358 28.777777777777793)"/><use xlink:href="#j" transform="matrix(1,0,0,1,532,768.1666666666666) translate(0 55.444444444444464)"/><use xlink:href="#l" transform="matrix(1,0,0,1,532,768.1666666666666) translate(19.1358024691358 55.444444444444464)"/><use xlink:href="#j" transform="matrix(1,0,0,1,532,768.1666666666666) translate(0 82.11111111111111)"/><use xlink:href="#m" transform="matrix(1,0,0,1,532,768.1666666666666) translate(19.1358024691358 82.11111111111111)"/><use xlink:href="#j" transform="matrix(1,0,0,1,532,768.1666666666666) translate(0 108.7777777777778)"/><use xlink:href="#n" transform="matrix(1,0,0,1,532,768.1666666666666) translate(19.1358024691358 108.7777777777778)"/><use xlink:href="#j" transform="matrix(1,0,0,1,532,768.1666666666666) translate(0 135.44444444444446)"/><use xlink:href="#o" transform="matrix(1,0,0,1,532,768.1666666666666) translate(19.1358024691358 135.44444444444446)"/><use xlink:href="#j" transform="matrix(1,0,0,1,532,768.1666666666666) translate(0 162.11111111111114)"/><use xlink:href="#p" transform="matrix(1,0,0,1,532,768.1666666666666) translate(19.1358024691358 162.11111111111114)"/><use xlink:href="#j" transform="matrix(1,0,0,1,532,768.1666666666666) translate(0 188.77777777777777)"/><use xlink:href="#q" transform="matrix(1,0,0,1,532,768.1666666666666) translate(19.1358024691358 188.77777777777777)"/><use xlink:href="#j" transform="matrix(1,0,0,1,532,768.1666666666666) translate(0 215.44444444444446)"/><use xlink:href="#r" transform="matrix(1,0,0,1,532,768.1666666666666) translate(19.1358024691358 215.44444444444446)"/><use xlink:href="#i" transform="matrix(1,0,0,1,532,768.1666666666666) translate(0 242.1111111111111)"/><path d="M1780 526a6 6 0 0 1 6-6h348a6 6 0 0 1 6 6v266a6 6 0 0 1-6 6h-348a6 6 0 0 1-6-6z" stroke="#3a414a" fill="#fff"/><path d="M1780 562.67h360m-360 90.83h360" stroke="#3a414a" fill="none"/><use xlink:href="#s" transform="matrix(1,0,0,1,1788,528) translate(137.46296296296296 17.944444444444443)"/><use xlink:href="#c" transform="matrix(1,0,0,1,1792,570.6666666666666) translate(0 28.611111111111114)"/><use xlink:href="#t" transform="matrix(1,0,0,1,1792,570.6666666666666) translate(13.518518518518519 28.611111111111114)"/><use xlink:href="#c" transform="matrix(1,0,0,1,1792,570.6666666666666) translate(0 55.27777777777778)"/><use xlink:href="#u" transform="matrix(1,0,0,1,1792,570.6666666666666) translate(13.518518518518519 55.27777777777778)"/><use xlink:href="#j" transform="matrix(1,0,0,1,1792,661.5) translate(0 28.94444444444445)"/><use xlink:href="#v" transform="matrix(1,0,0,1,1792,661.5) translate(19.1358024691358 28.94444444444445)"/><use xlink:href="#j" transform="matrix(1,0,0,1,1792,661.5) translate(0 55.61111111111112)"/><use xlink:href="#w" transform="matrix(1,0,0,1,1792,661.5) translate(19.1358024691358 55.61111111111112)"/><use xlink:href="#j" transform="matrix(1,0,0,1,1792,661.5) translate(0 82.27777777777777)"/><use xlink:href="#x" transform="matrix(1,0,0,1,1792,661.5) translate(19.1358024691358 82.27777777777777)"/><use xlink:href="#j" transform="matrix(1,0,0,1,1792,661.5) translate(0 108.94444444444446)"/><use xlink:href="#y" transform="matrix(1,0,0,1,1792,661.5) translate(19.1358024691358 108.94444444444446)"/><path d="M1780 926a6 6 0 0 1 6-6h348a6 6 0 0 1 6 6v191a6 6 0 0 1-6 6h-348a6 6 0 0 1-6-6z" stroke="#3a414a" fill="#fff"/><path d="M1780 979.2h360" stroke="#3a414a" fill="none"/><use xlink:href="#z" transform="matrix(1,0,0,1,1788,928) translate(113.57499999999999 14.799999999999999)"/><use xlink:href="#A" transform="matrix(1,0,0,1,1788,928) translate(118.125 36.4)"/><use xlink:href="#j" transform="matrix(1,0,0,1,1792,987.2) translate(0 68.44444444444444)"/><use xlink:href="#B" transform="matrix(1,0,0,1,1792,987.2) translate(19.1358024691358 68.44444444444444)"/><path d="M460 1286a6 6 0 0 1 6-6h348a6 6 0 0 1 6 6v159a6 6 0 0 1-6 6H466a6 6 0 0 1-6-6z" stroke="#3a414a" fill="#fff"/><path d="M460 1322.67h360m-360 64.16h360" stroke="#3a414a" fill="none"/><use xlink:href="#C" transform="matrix(1,0,0,1,468,1288) translate(80.76543209876546 17.944444444444443)"/><use xlink:href="#j" transform="matrix(1,0,0,1,472,1394.8333333333335) translate(0 28.944444444444443)"/><use xlink:href="#B" transform="matrix(1,0,0,1,472,1394.8333333333335) translate(19.1358024691358 28.944444444444443)"/><path d="M900 1286a6 6 0 0 1 6-6h348a6 6 0 0 1 6 6v159a6 6 0 0 1-6 6H906a6 6 0 0 1-6-6z" stroke="#3a414a" fill="#fff"/><path d="M900 1322.67h360m-360 64.16h360" stroke="#3a414a" fill="none"/><use xlink:href="#D" transform="matrix(1,0,0,1,908,1288) translate(90.58024691358025 17.944444444444443)"/><g><use xlink:href="#j" transform="matrix(1,0,0,1,912,1394.8333333333335) translate(0 28.944444444444443)"/><use xlink:href="#B" transform="matrix(1,0,0,1,912,1394.8333333333335) translate(19.1358024691358 28.944444444444443)"/></g><path d="M1340 1286a6 6 0 0 1 6-6h348a6 6 0 0 1 6 6v159a6 6 0 0 1-6 6h-348a6 6 0 0 1-6-6z" stroke="#3a414a" fill="#fff"/><path d="M1340 1322.67h360m-360 64.16h360" stroke="#3a414a" fill="none"/><g><use xlink:href="#E" transform="matrix(1,0,0,1,1348,1288) translate(78.29629629629632 17.944444444444443)"/></g><g><use xlink:href="#j" transform="matrix(1,0,0,1,1352,1394.8333333333335) translate(0 28.944444444444443)"/><use xlink:href="#B" transform="matrix(1,0,0,1,1352,1394.8333333333335) translate(19.1358024691358 28.944444444444443)"/></g><path d="M1780 1286a6 6 0 0 1 6-6h348a6 6 0 0 1 6 6v159a6 6 0 0 1-6 6h-348a6 6 0 0 1-6-6z" stroke="#3a414a" fill="#fff"/><path d="M1780 1322.67h360m-360 64.16h360" stroke="#3a414a" fill="none"/><g><use xlink:href="#F" transform="matrix(1,0,0,1,1788,1288) translate(76.04320987654323 17.944444444444443)"/></g><g><use xlink:href="#j" transform="matrix(1,0,0,1,1792,1394.8333333333335) translate(0 28.944444444444443)"/><use xlink:href="#B" transform="matrix(1,0,0,1,1792,1394.8333333333335) translate(19.1358024691358 28.944444444444443)"/></g><path d="M1400.96 283H1954a6 6 0 0 1 6 6v229.63" stroke="#3a414a" fill="none"/><path d="M1400.98 283.5h-.52v-1h.52z" stroke="#3a414a" stroke-width=".05" fill="#3a414a"/><path d="M1949.82 501.34l10.18 17.2 10.18-17.2M1239.04 283H706a6 6 0 0 0-6 6v229.63" stroke="#3a414a" fill="none"/><path d="M1239.54 283.5h-.52v-1h.52z" stroke="#3a414a" stroke-width=".05" fill="#3a414a"/><path d="M689.82 501.34l10.18 17.2 10.18-17.2M1749.16 659h-867.8" stroke="#3a414a" fill="none"/><path d="M1778.83 659l-14.85 14.85-15.15-14.85 15.15-14.85z" stroke="#3a414a" fill="#fff"/><path d="M898.64 648.82L881.44 659l17.2 10.18M1960 828.84v89.8" stroke="#3a414a" fill="none"/><path d="M1960 799.17l14.85 14.85-14.85 15.15-14.85-15.15z" stroke="#3a414a" fill="#fff"/><path d="M1949.82 901.34l10.18 17.2 10.18-17.2M1779 958.66h-9.96m-9.97 0h-19.95m-9.97 0h-19.95m-9.98 0h-19.94m-9.98 0h-19.94m-9.98 0h-19.94m-9.98 0h-19.94m-9.98 0h-19.94m-9.98 0h-19.94m-9.98 0h-19.95m-9.97 0h-19.95m-9.97 0h-19.95m-9.96 0H1410m-9.98 0h-19.95m-9.97 0h-19.95m-9.97 0h-19.95m-9.97 0h-19.95m-9.96 0h-19.95m-9.98 0h-19.95m-9.97 0h-19.95m-9.97 0h-19.95m-9.97 0h-19.95m-9.96 0h-19.95m-9.98 0h-19.95m-9.98 0h-19.95m-9.98 0h-19.94m-9.98 0H991.1m-9.97 0H961.2m-10 0h-19.93m-9.98 0h-19.95m-9.98 0h-9.97" stroke="#3a414a" fill="none"/><path d="M1779.5 959.16h-.5v-1h.5z" stroke="#3a414a" stroke-width=".05" fill="#3a414a"/><path d="M898.7 948.48l-17.23 10.18 17.22 10.18" stroke="#3a414a" fill="none"/><g><use xlink:href="#G" transform="matrix(1,0,0,1,1294.5009430754562,933.0625390486848) translate(0 14.4)"/></g><path d="M640 1279.04v-9.34m0-9.33v-18.66m0-9.32v-18.67m0-9.32v-18.66m0-9.33v-18.68m0-9.33v-18.67m0-9.34v-18.67m0-9.33v-9.33l.07-.94.22-.92.35-.86.5-.8.6-.72.72-.6.8-.5.88-.36.9-.22h10.08m10.08 0h20.15m10.08 0h20.14m10.08 0h20.14m10.07 0H776m10.08 0h20.15m10.07 0h20.15m10.07 0l20.15-.02m10.07 0h20.15m10.06 0h20.15m10.08 0h20.15m10.07 0h20.15m10.07 0h20.15m10.07 0h20.14m10.08 0h20.14m10.08 0h20.14m10.08 0h20.14m10.08 0l20.14-.02m10.08 0h20.14m10.07 0h20.15m10.07 0h20.15m10.07 0h20.14m10.07 0h20.16m10.07 0h20.15m10.07 0h20.15m10.07 0h20.15m10.07 0h20.14m10.07 0l20.15-.02m10.08 0h20.14m10.08 0h20.14m10.07 0h20.14m10.1 0h20.13m10.07 0h20.15m10.07 0h20.15m10.07 0h20.15m10.06 0h20.15m10.08 0h20.15m10.07 0h10.07" stroke="#3a414a" fill="none"/><path d="M640.5 1279.54h-1v-.52h1z" stroke="#3a414a" stroke-width=".05" fill="#3a414a"/><path d="M1777.94 1077.07l-14.27 4.63v-9.27z" stroke="#3a414a" fill="#fff"/><path d="M1080 1279.04v-9.42m0-9.42v-18.84m0-9.42v-18.84m0-9.42v-18.84m0-9.42V1166l.07-.94.22-.9.35-.88.5-.8.6-.72.72-.6.8-.5.88-.37.9-.23h10.02m10 0h20m10.02 0h20m10 0h20m10.02 0h20m10 0h20.02m10 0h20.02m10-.02h20.02m10 0h20m10.02 0h20m10 0h20.02m10 0h20.02m10 0h20m10.02 0h20m10 0l20.02-.02m10 0h20.02m10 0h20.02m10 0h20m10.02 0h20m10 0h20.02m10 0h20.02m10 0l20-.02m10.02 0h20m10 0h20.03m10 0h20m10.02 0h20m10 0h10.02l.94-.07.92-.22.87-.35.8-.5.7-.6.62-.72.5-.8.35-.88.22-.9.07-15.08" stroke="#3a414a" fill="none"/><path d="M1080.5 1279.54h-1v-.52h1z" stroke="#3a414a" stroke-width=".05" fill="#3a414a"/><path d="M1871.47 1125.1l4.63 14.27h-9.27z" stroke="#3a414a" fill="#fff"/><path d="M1520 1279.04v-11.93m0-11.9v-23.86m0-11.92v-11.92l.07-.94.22-.92.35-.87.5-.8.6-.72.72-.6.8-.5.88-.36.9-.23h9.85m9.84 0h19.7m9.83 0h19.68m9.85 0l19.68-.02m9.84 0H1653m9.85 0h19.68m9.84 0h19.68m9.85 0h19.68m9.84-.02h19.7m9.83 0h19.68m9.84 0h19.7m9.83 0h19.68m9.84 0l19.7-.02m9.83 0h19.68m9.84 0h19.7m9.83 0h19.68m9.84 0h9.85l.93-.08.92-.22.87-.36.8-.5.7-.6.62-.72.5-.8.35-.87.22-.92V1187m.02-9.43l.02-18.87m0-9.43l.03-9.43" stroke="#3a414a" fill="none"/><path d="M1520.5 1279.54h-1v-.52h1z" stroke="#3a414a" stroke-width=".05" fill="#3a414a"/><path d="M2003.47 1125.07l4.63 14.27h-9.27z" stroke="#3a414a" fill="#fff"/><path d="M1960 1279.04v-11.17m0-11.17v-11.16l.07-.94.22-.92.35-.87.5-.8.6-.7.72-.62.8-.5.88-.35.9-.22h9.96m9.96 0h19.9m9.95 0h19.9m9.96-.02h19.9m9.95 0h19.9m9.95-.02h19.9m9.95 0l19.9-.02m9.95 0h9.95l.94-.08.9-.22.88-.36.8-.5.72-.6.6-.72.5-.8.37-.87.23-.92v-9.08m0-9.1l.02-18.15m0-9.08v-18.16m.02-9.07v-18.16m0-9.08l.02-18.17m0-9.08v-9.08l-.07-.94-.22-.9-.35-.88-.5-.8-.6-.72-.72-.6-.8-.5-.88-.37-.9-.22-18.08-.07" stroke="#3a414a" fill="none"/><path d="M1960.5 1279.54h-1v-.52h1z" stroke="#3a414a" stroke-width=".05" fill="#3a414a"/><path d="M2142.1 1092.27l14.27-4.64v9.28z" stroke="#3a414a" fill="#fff"/><defs><path fill="#3a414a" d="M240 0l2-218c-23 76-54 145-80 218h-23L58-218 59 0H30v-248h44l77 211c21-75 51-140 76-211h43V0h-30" id="H"/><path fill="#3a414a" d="M141-36C126-15 110 5 73 4 37 3 15-17 15-53c-1-64 63-63 125-63 3-35-9-54-41-54-24 1-41 7-42 31l-33-3c5-37 33-52 76-52 45 0 72 20 72 64v82c-1 20 7 32 28 27v20c-31 9-61-2-59-35zM48-53c0 20 12 33 32 33 41-3 63-29 60-74-43 2-92-5-92 41" id="I"/><path fill="#3a414a" d="M24-231v-30h32v30H24zM24 0v-190h32V0H24" id="J"/><path fill="#3a414a" d="M117-194c89-4 53 116 60 194h-32v-121c0-31-8-49-39-48C34-167 62-67 57 0H25l-1-190h30c1 10-1 24 2 32 11-22 29-35 61-36" id="K"/><g id="a"><use transform="matrix(0.06172839506172839,0,0,0.06172839506172839,0,0)" xlink:href="#H"/><use transform="matrix(0.06172839506172839,0,0,0.06172839506172839,18.456790123456788,0)" xlink:href="#I"/><use transform="matrix(0.06172839506172839,0,0,0.06172839506172839,30.80246913580247,0)" xlink:href="#J"/><use transform="matrix(0.06172839506172839,0,0,0.06172839506172839,35.67901234567901,0)" xlink:href="#K"/></g><path fill="#3a414a" d="M30-248c87 1 191-15 191 75 0 78-77 80-158 76V0H30v-248zm33 125c57 0 124 11 124-50 0-59-68-47-124-48v98" id="L"/><path fill="#3a414a" d="M100-194c63 0 86 42 84 106H49c0 40 14 67 53 68 26 1 43-12 49-29l28 8c-11 28-37 45-77 45C44 4 14-33 15-96c1-61 26-98 85-98zm52 81c6-60-76-77-97-28-3 7-6 17-6 28h103" id="M"/><path fill="#3a414a" d="M114-163C36-179 61-72 57 0H25l-1-190h30c1 12-1 29 2 39 6-27 23-49 58-41v29" id="N"/><path fill="#3a414a" d="M135-143c-3-34-86-38-87 0 15 53 115 12 119 90S17 21 10-45l28-5c4 36 97 45 98 0-10-56-113-15-118-90-4-57 82-63 122-42 12 7 21 19 24 35" id="O"/><path fill="#3a414a" d="M100-194c62-1 85 37 85 99 1 63-27 99-86 99S16-35 15-95c0-66 28-99 85-99zM99-20c44 1 53-31 53-75 0-43-8-75-51-75s-53 32-53 75 10 74 51 75" id="P"/><g id="b"><use transform="matrix(0.06172839506172839,0,0,0.06172839506172839,0,0)" xlink:href="#L"/><use transform="matrix(0.06172839506172839,0,0,0.06172839506172839,14.814814814814813,0)" xlink:href="#M"/><use transform="matrix(0.06172839506172839,0,0,0.06172839506172839,27.160493827160494,0)" xlink:href="#N"/><use transform="matrix(0.06172839506172839,0,0,0.06172839506172839,34.50617283950617,0)" xlink:href="#O"/><use transform="matrix(0.06172839506172839,0,0,0.06172839506172839,45.61728395061728,0)" xlink:href="#P"/><use transform="matrix(0.06172839506172839,0,0,0.06172839506172839,57.962962962962955,0)" xlink:href="#K"/></g><path fill="#3a414a" d="M16-82v-28h88v28H16" id="Q"/><use transform="matrix(0.06172839506172839,0,0,0.06172839506172839,0,0)" xlink:href="#Q" id="c"/><path fill="#3a414a" d="M115-194c55 1 70 41 70 98S169 2 115 4C84 4 66-9 55-30l1 105H24l-1-265h31l2 30c10-21 28-34 59-34zm-8 174c40 0 45-34 45-75s-6-73-45-74c-42 0-51 32-51 76 0 43 10 73 51 73" id="R"/><g id="d"><use transform="matrix(0.06172839506172839,0,0,0.06172839506172839,0,0)" xlink:href="#R"/><use transform="matrix(0.06172839506172839,0,0,0.06172839506172839,12.345679012345679,0)" xlink:href="#M"/><use transform="matrix(0.06172839506172839,0,0,0.06172839506172839,24.691358024691358,0)" xlink:href="#N"/><use transform="matrix(0.06172839506172839,0,0,0.06172839506172839,32.03703703703704,0)" xlink:href="#O"/><use transform="matrix(0.06172839506172839,0,0,0.06172839506172839,43.14814814814815,0)" xlink:href="#P"/><use transform="matrix(0.06172839506172839,0,0,0.06172839506172839,55.49382716049383,0)" xlink:href="#K"/></g><path fill="#3a414a" d="M177-190C167-65 218 103 67 71c-23-6-38-20-44-43l32-5c15 47 100 32 89-28v-30C133-14 115 1 83 1 29 1 15-40 15-95c0-56 16-97 71-98 29-1 48 16 59 35 1-10 0-23 2-32h30zM94-22c36 0 50-32 50-73 0-42-14-75-50-75-39 0-46 34-46 75s6 73 46 73" id="S"/><g id="e"><use transform="matrix(0.06172839506172839,0,0,0.06172839506172839,0,0)" xlink:href="#I"/><use transform="matrix(0.06172839506172839,0,0,0.06172839506172839,12.345679012345679,0)" xlink:href="#S"/><use transform="matrix(0.06172839506172839,0,0,0.06172839506172839,24.691358024691358,0)" xlink:href="#M"/></g><path fill="#3a414a" d="M106-169C34-169 62-67 57 0H25v-261h32l-1 103c12-21 28-36 61-36 89 0 53 116 60 194h-32v-121c2-32-8-49-39-48" id="T"/><path fill="#3a414a" d="M59-47c-2 24 18 29 38 22v24C64 9 27 4 27-40v-127H5v-23h24l9-43h21v43h35v23H59v120" id="U"/><g id="f"><use transform="matrix(0.06172839506172839,0,0,0.06172839506172839,0,0)" xlink:href="#T"/><use transform="matrix(0.06172839506172839,0,0,0.06172839506172839,12.345679012345679,0)" xlink:href="#M"/><use transform="matrix(0.06172839506172839,0,0,0.06172839506172839,24.691358024691358,0)" xlink:href="#J"/><use transform="matrix(0.06172839506172839,0,0,0.06172839506172839,29.5679012345679,0)" xlink:href="#S"/><use transform="matrix(0.06172839506172839,0,0,0.06172839506172839,41.913580246913575,0)" xlink:href="#T"/><use transform="matrix(0.06172839506172839,0,0,0.06172839506172839,54.25925925925925,0)" xlink:href="#U"/></g><path fill="#3a414a" d="M206 0h-36l-40-164L89 0H53L-1-190h32L70-26l43-164h34l41 164 42-164h31" id="V"/><g id="g"><use transform="matrix(0.06172839506172839,0,0,0.06172839506172839,0,0)" xlink:href="#V"/><use transform="matrix(0.06172839506172839,0,0,0.06172839506172839,15.987654320987653,0)" xlink:href="#M"/><use transform="matrix(0.06172839506172839,0,0,0.06172839506172839,28.333333333333332,0)" xlink:href="#J"/><use transform="matrix(0.06172839506172839,0,0,0.06172839506172839,33.20987654320987,0)" xlink:href="#S"/><use transform="matrix(0.06172839506172839,0,0,0.06172839506172839,45.55555555555555,0)" xlink:href="#T"/><use transform="matrix(0.06172839506172839,0,0,0.06172839506172839,57.90123456790123,0)" xlink:href="#U"/></g><path fill="#3a414a" d="M118-107v75H92v-75H18v-26h74v-75h26v75h74v26h-74" id="W"/><use transform="matrix(0.06172839506172839,0,0,0.06172839506172839,0,0)" xlink:href="#W" id="j"/><path fill="#3a414a" d="M190 0L58-211 59 0H30v-248h39L202-35l-2-213h31V0h-41" id="X"/><path fill="#3a414a" d="M210-169c-67 3-38 105-44 169h-31v-121c0-29-5-50-35-48C34-165 62-65 56 0H25l-1-190h30c1 10-1 24 2 32 10-44 99-50 107 0 11-21 27-35 58-36 85-2 47 119 55 194h-31v-121c0-29-5-49-35-48" id="Y"/><path fill="#3a414a" d="M87 75C49 33 22-17 22-94c0-76 28-126 65-167h31c-38 41-64 92-64 168S80 34 118 75H87" id="Z"/><path fill="#3a414a" d="M33-261c38 41 65 92 65 168S71 34 33 75H2C39 34 66-17 66-93S39-220 2-261h31" id="aa"/><g id="k"><use transform="matrix(0.06172839506172839,0,0,0.06172839506172839,0,0)" xlink:href="#S"/><use transform="matrix(0.06172839506172839,0,0,0.06172839506172839,12.345679012345679,0)" xlink:href="#M"/><use transform="matrix(0.06172839506172839,0,0,0.06172839506172839,24.691358024691358,0)" xlink:href="#U"/><use transform="matrix(0.06172839506172839,0,0,0.06172839506172839,30.864197530864196,0)" xlink:href="#X"/><use transform="matrix(0.06172839506172839,0,0,0.06172839506172839,46.85185185185185,0)" xlink:href="#I"/><use transform="matrix(0.06172839506172839,0,0,0.06172839506172839,59.197530864197525,0)" xlink:href="#Y"/><use transform="matrix(0.06172839506172839,0,0,0.06172839506172839,77.65432098765432,0)" xlink:href="#M"/><use transform="matrix(0.06172839506172839,0,0,0.06172839506172839,90,0)" xlink:href="#Z"/><use transform="matrix(0.06172839506172839,0,0,0.06172839506172839,97.34567901234568,0)" xlink:href="#aa"/></g><g id="l"><use transform="matrix(0.06172839506172839,0,0,0.06172839506172839,0,0)" xlink:href="#O"/><use transform="matrix(0.06172839506172839,0,0,0.06172839506172839,11.11111111111111,0)" xlink:href="#M"/><use transform="matrix(0.06172839506172839,0,0,0.06172839506172839,23.45679012345679,0)" xlink:href="#U"/><use transform="matrix(0.06172839506172839,0,0,0.06172839506172839,29.62962962962963,0)" xlink:href="#X"/><use transform="matrix(0.06172839506172839,0,0,0.06172839506172839,45.617283950617285,0)" xlink:href="#I"/><use transform="matrix(0.06172839506172839,0,0,0.06172839506172839,57.96296296296296,0)" xlink:href="#Y"/><use transform="matrix(0.06172839506172839,0,0,0.06172839506172839,76.41975308641975,0)" xlink:href="#M"/><use transform="matrix(0.06172839506172839,0,0,0.06172839506172839,88.76543209876543,0)" xlink:href="#Z"/><use transform="matrix(0.06172839506172839,0,0,0.06172839506172839,96.11111111111111,0)" xlink:href="#K"/><use transform="matrix(0.06172839506172839,0,0,0.06172839506172839,108.4567901234568,0)" xlink:href="#I"/><use transform="matrix(0.06172839506172839,0,0,0.06172839506172839,120.80246913580248,0)" xlink:href="#Y"/><use transform="matrix(0.06172839506172839,0,0,0.06172839506172839,139.25925925925927,0)" xlink:href="#M"/><use transform="matrix(0.06172839506172839,0,0,0.06172839506172839,151.60493827160494,0)" xlink:href="#aa"/></g><path fill="#3a414a" d="M205 0l-28-72H64L36 0H1l101-248h38L239 0h-34zm-38-99l-47-123c-12 45-31 82-46 123h93" id="ab"/><g id="m"><use transform="matrix(0.06172839506172839,0,0,0.06172839506172839,0,0)" xlink:href="#S"/><use transform="matrix(0.06172839506172839,0,0,0.06172839506172839,12.345679012345679,0)" xlink:href="#M"/><use transform="matrix(0.06172839506172839,0,0,0.06172839506172839,24.691358024691358,0)" xlink:href="#U"/><use transform="matrix(0.06172839506172839,0,0,0.06172839506172839,30.864197530864196,0)" xlink:href="#ab"/><use transform="matrix(0.06172839506172839,0,0,0.06172839506172839,45.67901234567901,0)" xlink:href="#S"/><use transform="matrix(0.06172839506172839,0,0,0.06172839506172839,58.02469135802469,0)" xlink:href="#M"/></g><g id="n"><use transform="matrix(0.06172839506172839,0,0,0.06172839506172839,0,0)" xlink:href="#O"/><use transform="matrix(0.06172839506172839,0,0,0.06172839506172839,11.11111111111111,0)" xlink:href="#M"/><use transform="matrix(0.06172839506172839,0,0,0.06172839506172839,23.45679012345679,0)" xlink:href="#U"/><use transform="matrix(0.06172839506172839,0,0,0.06172839506172839,29.62962962962963,0)" xlink:href="#ab"/><use transform="matrix(0.06172839506172839,0,0,0.06172839506172839,44.44444444444444,0)" xlink:href="#S"/><use transform="matrix(0.06172839506172839,0,0,0.06172839506172839,56.79012345679012,0)" xlink:href="#M"/><use transform="matrix(0.06172839506172839,0,0,0.06172839506172839,69.1358024691358,0)" xlink:href="#Z"/><use transform="matrix(0.06172839506172839,0,0,0.06172839506172839,76.48148148148148,0)" xlink:href="#I"/><use transform="matrix(0.06172839506172839,0,0,0.06172839506172839,88.82716049382717,0)" xlink:href="#S"/><use transform="matrix(0.06172839506172839,0,0,0.06172839506172839,101.17283950617285,0)" xlink:href="#M"/><use transform="matrix(0.06172839506172839,0,0,0.06172839506172839,113.51851851851853,0)" xlink:href="#aa"/></g><path fill="#3a414a" d="M197 0v-115H63V0H30v-248h33v105h134v-105h34V0h-34" id="ac"/><g id="o"><use transform="matrix(0.06172839506172839,0,0,0.06172839506172839,0,0)" xlink:href="#S"/><use transform="matrix(0.06172839506172839,0,0,0.06172839506172839,12.345679012345679,0)" xlink:href="#M"/><use transform="matrix(0.06172839506172839,0,0,0.06172839506172839,24.691358024691358,0)" xlink:href="#U"/><use transform="matrix(0.06172839506172839,0,0,0.06172839506172839,30.864197530864196,0)" xlink:href="#ac"/><use transform="matrix(0.06172839506172839,0,0,0.06172839506172839,46.85185185185185,0)" xlink:href="#M"/><use transform="matrix(0.06172839506172839,0,0,0.06172839506172839,59.197530864197525,0)" xlink:href="#J"/><use transform="matrix(0.06172839506172839,0,0,0.06172839506172839,64.07407407407406,0)" xlink:href="#S"/><use transform="matrix(0.06172839506172839,0,0,0.06172839506172839,76.41975308641975,0)" xlink:href="#T"/><use transform="matrix(0.06172839506172839,0,0,0.06172839506172839,88.76543209876543,0)" xlink:href="#U"/><use transform="matrix(0.06172839506172839,0,0,0.06172839506172839,94.93827160493827,0)" xlink:href="#Z"/><use transform="matrix(0.06172839506172839,0,0,0.06172839506172839,102.28395061728395,0)" xlink:href="#aa"/></g><g id="p"><use transform="matrix(0.06172839506172839,0,0,0.06172839506172839,0,0)" xlink:href="#O"/><use transform="matrix(0.06172839506172839,0,0,0.06172839506172839,11.11111111111111,0)" xlink:href="#M"/><use transform="matrix(0.06172839506172839,0,0,0.06172839506172839,23.45679012345679,0)" xlink:href="#U"/><use transform="matrix(0.06172839506172839,0,0,0.06172839506172839,29.62962962962963,0)" xlink:href="#ac"/><use transform="matrix(0.06172839506172839,0,0,0.06172839506172839,45.617283950617285,0)" xlink:href="#M"/><use transform="matrix(0.06172839506172839,0,0,0.06172839506172839,57.96296296296296,0)" xlink:href="#J"/><use transform="matrix(0.06172839506172839,0,0,0.06172839506172839,62.839506172839506,0)" xlink:href="#S"/><use transform="matrix(0.06172839506172839,0,0,0.06172839506172839,75.18518518518519,0)" xlink:href="#T"/><use transform="matrix(0.06172839506172839,0,0,0.06172839506172839,87.53086419753087,0)" xlink:href="#U"/><use transform="matrix(0.06172839506172839,0,0,0.06172839506172839,93.70370370370371,0)" xlink:href="#Z"/><use transform="matrix(0.06172839506172839,0,0,0.06172839506172839,101.0493827160494,0)" xlink:href="#T"/><use transform="matrix(0.06172839506172839,0,0,0.06172839506172839,113.39506172839508,0)" xlink:href="#M"/><use transform="matrix(0.06172839506172839,0,0,0.06172839506172839,125.74074074074076,0)" xlink:href="#J"/><use transform="matrix(0.06172839506172839,0,0,0.06172839506172839,130.6172839506173,0)" xlink:href="#S"/><use transform="matrix(0.06172839506172839,0,0,0.06172839506172839,142.96296296296296,0)" xlink:href="#T"/><use transform="matrix(0.06172839506172839,0,0,0.06172839506172839,155.30864197530863,0)" xlink:href="#U"/><use transform="matrix(0.06172839506172839,0,0,0.06172839506172839,161.48148148148147,0)" xlink:href="#aa"/></g><path fill="#3a414a" d="M266 0h-40l-56-210L115 0H75L2-248h35L96-30l15-64 43-154h32l59 218 59-218h35" id="ad"/><g id="q"><use transform="matrix(0.06172839506172839,0,0,0.06172839506172839,0,0)" xlink:href="#S"/><use transform="matrix(0.06172839506172839,0,0,0.06172839506172839,12.345679012345679,0)" xlink:href="#M"/><use transform="matrix(0.06172839506172839,0,0,0.06172839506172839,24.691358024691358,0)" xlink:href="#U"/><use transform="matrix(0.06172839506172839,0,0,0.06172839506172839,30.864197530864196,0)" xlink:href="#ad"/><use transform="matrix(0.06172839506172839,0,0,0.06172839506172839,51.358024691358025,0)" xlink:href="#M"/><use transform="matrix(0.06172839506172839,0,0,0.06172839506172839,63.7037037037037,0)" xlink:href="#J"/><use transform="matrix(0.06172839506172839,0,0,0.06172839506172839,68.58024691358024,0)" xlink:href="#S"/><use transform="matrix(0.06172839506172839,0,0,0.06172839506172839,80.92592592592592,0)" xlink:href="#T"/><use transform="matrix(0.06172839506172839,0,0,0.06172839506172839,93.27160493827161,0)" xlink:href="#U"/><use transform="matrix(0.06172839506172839,0,0,0.06172839506172839,99.44444444444444,0)" xlink:href="#Z"/><use transform="matrix(0.06172839506172839,0,0,0.06172839506172839,106.79012345679013,0)" xlink:href="#aa"/></g><g id="r"><use transform="matrix(0.06172839506172839,0,0,0.06172839506172839,0,0)" xlink:href="#O"/><use transform="matrix(0.06172839506172839,0,0,0.06172839506172839,11.11111111111111,0)" xlink:href="#M"/><use transform="matrix(0.06172839506172839,0,0,0.06172839506172839,23.45679012345679,0)" xlink:href="#U"/><use transform="matrix(0.06172839506172839,0,0,0.06172839506172839,29.62962962962963,0)" xlink:href="#ad"/><use transform="matrix(0.06172839506172839,0,0,0.06172839506172839,50.123456790123456,0)" xlink:href="#M"/><use transform="matrix(0.06172839506172839,0,0,0.06172839506172839,62.46913580246913,0)" xlink:href="#J"/><use transform="matrix(0.06172839506172839,0,0,0.06172839506172839,67.34567901234567,0)" xlink:href="#S"/><use transform="matrix(0.06172839506172839,0,0,0.06172839506172839,79.69135802469135,0)" xlink:href="#T"/><use transform="matrix(0.06172839506172839,0,0,0.06172839506172839,92.03703703703704,0)" xlink:href="#U"/><use transform="matrix(0.06172839506172839,0,0,0.06172839506172839,98.20987654320987,0)" xlink:href="#Z"/><use transform="matrix(0.06172839506172839,0,0,0.06172839506172839,105.55555555555556,0)" xlink:href="#V"/><use transform="matrix(0.06172839506172839,0,0,0.06172839506172839,121.54320987654322,0)" xlink:href="#M"/><use transform="matrix(0.06172839506172839,0,0,0.06172839506172839,133.88888888888889,0)" xlink:href="#J"/><use transform="matrix(0.06172839506172839,0,0,0.06172839506172839,138.76543209876542,0)" xlink:href="#S"/><use transform="matrix(0.06172839506172839,0,0,0.06172839506172839,151.1111111111111,0)" xlink:href="#T"/><use transform="matrix(0.06172839506172839,0,0,0.06172839506172839,163.45679012345676,0)" xlink:href="#U"/><use transform="matrix(0.06172839506172839,0,0,0.06172839506172839,169.6296296296296,0)" xlink:href="#aa"/></g><path fill="#3a414a" d="M24 0v-261h32V0H24" id="ae"/><g id="s"><use transform="matrix(0.06172839506172839,0,0,0.06172839506172839,0,0)" xlink:href="#L"/><use transform="matrix(0.06172839506172839,0,0,0.06172839506172839,14.814814814814813,0)" xlink:href="#M"/><use transform="matrix(0.06172839506172839,0,0,0.06172839506172839,27.160493827160494,0)" xlink:href="#P"/><use transform="matrix(0.06172839506172839,0,0,0.06172839506172839,39.50617283950617,0)" xlink:href="#R"/><use transform="matrix(0.06172839506172839,0,0,0.06172839506172839,51.85185185185185,0)" xlink:href="#ae"/><use transform="matrix(0.06172839506172839,0,0,0.06172839506172839,56.72839506172839,0)" xlink:href="#M"/></g><path fill="#3a414a" d="M115-194c53 0 69 39 70 98 0 66-23 100-70 100C84 3 66-7 56-30L54 0H23l1-261h32v101c10-23 28-34 59-34zm-8 174c40 0 45-34 45-75 0-40-5-75-45-74-42 0-51 32-51 76 0 43 10 73 51 73" id="af"/><g id="t"><use transform="matrix(0.06172839506172839,0,0,0.06172839506172839,0,0)" xlink:href="#Y"/><use transform="matrix(0.06172839506172839,0,0,0.06172839506172839,18.456790123456788,0)" xlink:href="#M"/><use transform="matrix(0.06172839506172839,0,0,0.06172839506172839,30.80246913580247,0)" xlink:href="#Y"/><use transform="matrix(0.06172839506172839,0,0,0.06172839506172839,49.25925925925925,0)" xlink:href="#af"/><use transform="matrix(0.06172839506172839,0,0,0.06172839506172839,61.60493827160493,0)" xlink:href="#M"/><use transform="matrix(0.06172839506172839,0,0,0.06172839506172839,73.9506172839506,0)" xlink:href="#N"/><use transform="matrix(0.06172839506172839,0,0,0.06172839506172839,81.29629629629629,0)" xlink:href="#O"/></g><path fill="#3a414a" d="M185-189c-5-48-123-54-124 2 14 75 158 14 163 119 3 78-121 87-175 55-17-10-28-26-33-46l33-7c5 56 141 63 141-1 0-78-155-14-162-118-5-82 145-84 179-34 5 7 8 16 11 25" id="ag"/><path fill="#3a414a" d="M179-190L93 31C79 59 56 82 12 73V49c39 6 53-20 64-50L1-190h34L92-34l54-156h33" id="ah"/><g id="u"><use transform="matrix(0.06172839506172839,0,0,0.06172839506172839,0,0)" xlink:href="#O"/><use transform="matrix(0.06172839506172839,0,0,0.06172839506172839,11.11111111111111,0)" xlink:href="#P"/><use transform="matrix(0.06172839506172839,0,0,0.06172839506172839,23.45679012345679,0)" xlink:href="#N"/><use transform="matrix(0.06172839506172839,0,0,0.06172839506172839,30.80246913580247,0)" xlink:href="#U"/><use transform="matrix(0.06172839506172839,0,0,0.06172839506172839,36.97530864197531,0)" xlink:href="#ag"/><use transform="matrix(0.06172839506172839,0,0,0.06172839506172839,51.79012345679013,0)" xlink:href="#U"/><use transform="matrix(0.06172839506172839,0,0,0.06172839506172839,57.96296296296297,0)" xlink:href="#N"/><use transform="matrix(0.06172839506172839,0,0,0.06172839506172839,65.30864197530865,0)" xlink:href="#I"/><use transform="matrix(0.06172839506172839,0,0,0.06172839506172839,77.65432098765433,0)" xlink:href="#U"/><use transform="matrix(0.06172839506172839,0,0,0.06172839506172839,83.82716049382717,0)" xlink:href="#M"/><use transform="matrix(0.06172839506172839,0,0,0.06172839506172839,96.17283950617285,0)" xlink:href="#S"/><use transform="matrix(0.06172839506172839,0,0,0.06172839506172839,108.51851851851853,0)" xlink:href="#ah"/></g><g id="v"><use transform="matrix(0.06172839506172839,0,0,0.06172839506172839,0,0)" xlink:href="#R"/><use transform="matrix(0.06172839506172839,0,0,0.06172839506172839,12.345679012345679,0)" xlink:href="#M"/><use transform="matrix(0.06172839506172839,0,0,0.06172839506172839,24.691358024691358,0)" xlink:href="#P"/><use transform="matrix(0.06172839506172839,0,0,0.06172839506172839,37.03703703703704,0)" xlink:href="#R"/><use transform="matrix(0.06172839506172839,0,0,0.06172839506172839,49.382716049382715,0)" xlink:href="#ae"/><use transform="matrix(0.06172839506172839,0,0,0.06172839506172839,54.25925925925926,0)" xlink:href="#M"/><use transform="matrix(0.06172839506172839,0,0,0.06172839506172839,66.60493827160494,0)" xlink:href="#Z"/><use transform="matrix(0.06172839506172839,0,0,0.06172839506172839,73.95061728395062,0)" xlink:href="#aa"/></g><g id="w"><use transform="matrix(0.06172839506172839,0,0,0.06172839506172839,0,0)" xlink:href="#O"/><use transform="matrix(0.06172839506172839,0,0,0.06172839506172839,11.11111111111111,0)" xlink:href="#M"/><use transform="matrix(0.06172839506172839,0,0,0.06172839506172839,23.45679012345679,0)" xlink:href="#U"/><use transform="matrix(0.06172839506172839,0,0,0.06172839506172839,29.62962962962963,0)" xlink:href="#ag"/><use transform="matrix(0.06172839506172839,0,0,0.06172839506172839,44.44444444444444,0)" xlink:href="#P"/><use transform="matrix(0.06172839506172839,0,0,0.06172839506172839,56.79012345679012,0)" xlink:href="#N"/><use transform="matrix(0.06172839506172839,0,0,0.06172839506172839,64.1358024691358,0)" xlink:href="#U"/><use transform="matrix(0.06172839506172839,0,0,0.06172839506172839,70.30864197530863,0)" xlink:href="#ag"/><use transform="matrix(0.06172839506172839,0,0,0.06172839506172839,85.12345679012344,0)" xlink:href="#U"/><use transform="matrix(0.06172839506172839,0,0,0.06172839506172839,91.29629629629628,0)" xlink:href="#N"/><use transform="matrix(0.06172839506172839,0,0,0.06172839506172839,98.64197530864196,0)" xlink:href="#I"/><use transform="matrix(0.06172839506172839,0,0,0.06172839506172839,110.98765432098764,0)" xlink:href="#U"/><use transform="matrix(0.06172839506172839,0,0,0.06172839506172839,117.16049382716048,0)" xlink:href="#M"/><use transform="matrix(0.06172839506172839,0,0,0.06172839506172839,129.50617283950615,0)" xlink:href="#S"/><use transform="matrix(0.06172839506172839,0,0,0.06172839506172839,141.85185185185182,0)" xlink:href="#ah"/><use transform="matrix(0.06172839506172839,0,0,0.06172839506172839,152.96296296296293,0)" xlink:href="#Z"/><use transform="matrix(0.06172839506172839,0,0,0.06172839506172839,160.3086419753086,0)" xlink:href="#O"/><use transform="matrix(0.06172839506172839,0,0,0.06172839506172839,171.41975308641972,0)" xlink:href="#P"/><use transform="matrix(0.06172839506172839,0,0,0.06172839506172839,183.7654320987654,0)" xlink:href="#N"/><use transform="matrix(0.06172839506172839,0,0,0.06172839506172839,191.11111111111106,0)" xlink:href="#U"/><use transform="matrix(0.06172839506172839,0,0,0.06172839506172839,197.2839506172839,0)" xlink:href="#ag"/><use transform="matrix(0.06172839506172839,0,0,0.06172839506172839,212.0987654320987,0)" xlink:href="#U"/><use transform="matrix(0.06172839506172839,0,0,0.06172839506172839,218.27160493827154,0)" xlink:href="#N"/><use transform="matrix(0.06172839506172839,0,0,0.06172839506172839,225.6172839506172,0)" xlink:href="#I"/><use transform="matrix(0.06172839506172839,0,0,0.06172839506172839,237.96296296296288,0)" xlink:href="#U"/><use transform="matrix(0.06172839506172839,0,0,0.06172839506172839,244.1358024691357,0)" xlink:href="#M"/><use transform="matrix(0.06172839506172839,0,0,0.06172839506172839,256.4814814814814,0)" xlink:href="#S"/><use transform="matrix(0.06172839506172839,0,0,0.06172839506172839,268.8271604938271,0)" xlink:href="#ah"/><use transform="matrix(0.06172839506172839,0,0,0.06172839506172839,279.93827160493817,0)" xlink:href="#aa"/></g><path fill="#3a414a" d="M85-194c31 0 48 13 60 33l-1-100h32l1 261h-30c-2-10 0-23-3-31C134-8 116 4 85 4 32 4 16-35 15-94c0-66 23-100 70-100zm9 24c-40 0-46 34-46 75 0 40 6 74 45 74 42 0 51-32 51-76 0-42-9-74-50-73" id="ai"/><g id="x"><use transform="matrix(0.06172839506172839,0,0,0.06172839506172839,0,0)" xlink:href="#I"/><use transform="matrix(0.06172839506172839,0,0,0.06172839506172839,12.345679012345679,0)" xlink:href="#ai"/><use transform="matrix(0.06172839506172839,0,0,0.06172839506172839,24.691358024691358,0)" xlink:href="#ai"/><use transform="matrix(0.06172839506172839,0,0,0.06172839506172839,37.03703703703704,0)" xlink:href="#Y"/><use transform="matrix(0.06172839506172839,0,0,0.06172839506172839,55.49382716049382,0)" xlink:href="#M"/><use transform="matrix(0.06172839506172839,0,0,0.06172839506172839,67.8395061728395,0)" xlink:href="#Y"/><use transform="matrix(0.06172839506172839,0,0,0.06172839506172839,86.29629629629629,0)" xlink:href="#af"/><use transform="matrix(0.06172839506172839,0,0,0.06172839506172839,98.64197530864197,0)" xlink:href="#M"/><use transform="matrix(0.06172839506172839,0,0,0.06172839506172839,110.98765432098766,0)" xlink:href="#N"/><use transform="matrix(0.06172839506172839,0,0,0.06172839506172839,118.33333333333334,0)" xlink:href="#Z"/><use transform="matrix(0.06172839506172839,0,0,0.06172839506172839,125.67901234567903,0)" xlink:href="#aa"/></g><path fill="#3a414a" d="M84 4C-5 8 30-112 23-190h32v120c0 31 7 50 39 49 72-2 45-101 50-169h31l1 190h-30c-1-10 1-25-2-33-11 22-28 36-60 37" id="aj"/><g id="y"><use transform="matrix(0.06172839506172839,0,0,0.06172839506172839,0,0)" xlink:href="#R"/><use transform="matrix(0.06172839506172839,0,0,0.06172839506172839,12.345679012345679,0)" xlink:href="#N"/><use transform="matrix(0.06172839506172839,0,0,0.06172839506172839,19.691358024691358,0)" xlink:href="#J"/><use transform="matrix(0.06172839506172839,0,0,0.06172839506172839,24.5679012345679,0)" xlink:href="#K"/><use transform="matrix(0.06172839506172839,0,0,0.06172839506172839,36.913580246913575,0)" xlink:href="#U"/><use transform="matrix(0.06172839506172839,0,0,0.06172839506172839,43.08641975308642,0)" xlink:href="#Z"/><use transform="matrix(0.06172839506172839,0,0,0.06172839506172839,50.432098765432094,0)" xlink:href="#P"/><use transform="matrix(0.06172839506172839,0,0,0.06172839506172839,62.77777777777777,0)" xlink:href="#aj"/><use transform="matrix(0.06172839506172839,0,0,0.06172839506172839,75.12345679012346,0)" xlink:href="#U"/><use transform="matrix(0.06172839506172839,0,0,0.06172839506172839,81.29629629629629,0)" xlink:href="#aa"/></g><path d="M15-91v-56l181-69v40L49-119l147 57v40" id="ak"/><path d="M25-224v-37h50v37H25zM25 0v-190h50V0H25" id="al"/><path d="M135-194c87-1 58 113 63 194h-50c-7-57 23-157-34-157-59 0-34 97-39 157H25l-1-190h47c2 12-1 28 3 38 12-26 28-41 61-42" id="am"/><path d="M115-3C79 11 28 4 28-45v-112H4v-33h27l15-45h31v45h36v33H77v99c-1 23 16 31 38 25v30" id="an"/><path d="M185-48c-13 30-37 53-82 52C43 2 14-33 14-96s30-98 90-98c62 0 83 45 84 108H66c0 31 8 55 39 56 18 0 30-7 34-22zm-45-69c5-46-57-63-70-21-2 6-4 13-4 21h74" id="ao"/><path d="M135-150c-39-12-60 13-60 57V0H25l-1-190h47c2 13-1 29 3 40 6-28 27-53 61-41v41" id="ap"/><path d="M121-226c-27-7-43 5-38 36h38v33H83V0H34v-157H6v-33h28c-9-59 32-81 87-68v32" id="aq"/><path d="M133-34C117-15 103 5 69 4 32 3 11-16 11-54c-1-60 55-63 116-61 1-26-3-47-28-47-18 1-26 9-28 27l-52-2c7-38 36-58 82-57s74 22 75 68l1 82c-1 14 12 18 25 15v27c-30 8-71 5-69-32zm-48 3c29 0 43-24 42-57-32 0-66-3-65 30 0 17 8 27 23 27" id="ar"/><path d="M190-63c-7 42-38 67-86 67-59 0-84-38-90-98-12-110 154-137 174-36l-49 2c-2-19-15-32-35-32-30 0-35 28-38 64-6 74 65 87 74 30" id="as"/><path d="M15-22v-40l146-57-146-57v-40l181 69v56" id="at"/><g id="z"><use transform="matrix(0.05,0,0,0.05,0,0)" xlink:href="#ak"/><use transform="matrix(0.05,0,0,0.05,10.5,0)" xlink:href="#ak"/><use transform="matrix(0.05,0,0,0.05,21,0)" xlink:href="#al"/><use transform="matrix(0.05,0,0,0.05,26,0)" xlink:href="#am"/><use transform="matrix(0.05,0,0,0.05,36.95,0)" xlink:href="#an"/><use transform="matrix(0.05,0,0,0.05,42.900000000000006,0)" xlink:href="#ao"/><use transform="matrix(0.05,0,0,0.05,52.900000000000006,0)" xlink:href="#ap"/><use transform="matrix(0.05,0,0,0.05,59.900000000000006,0)" xlink:href="#aq"/><use transform="matrix(0.05,0,0,0.05,65.85000000000001,0)" xlink:href="#ar"/><use transform="matrix(0.05,0,0,0.05,75.85000000000001,0)" xlink:href="#as"/><use transform="matrix(0.05,0,0,0.05,85.85000000000001,0)" xlink:href="#ao"/><use transform="matrix(0.05,0,0,0.05,95.85000000000001,0)" xlink:href="#at"/><use transform="matrix(0.05,0,0,0.05,106.35000000000001,0)" xlink:href="#at"/></g><path d="M169-182c-1-43-94-46-97-3 18 66 151 10 154 114 3 95-165 93-204 36-6-8-10-19-12-30l50-8c3 46 112 56 116 5-17-69-150-10-154-114-4-87 153-88 188-35 5 8 8 18 10 28" id="au"/><path d="M110-194c64 0 96 36 96 99 0 64-35 99-97 99-61 0-95-36-95-99 0-62 34-99 96-99zm-1 164c35 0 45-28 45-65 0-40-10-65-43-65-34 0-45 26-45 65 0 36 10 65 43 65" id="av"/><path d="M195-6C206 82 75 100 31 46c-4-6-6-13-8-21l49-6c3 16 16 24 34 25 40 0 42-37 40-79-11 22-30 35-61 35-53 0-70-43-70-97 0-56 18-96 73-97 30 0 46 14 59 34l2-30h47zm-90-29c32 0 41-27 41-63 0-35-9-62-40-62-32 0-39 29-40 63 0 36 9 62 39 62" id="aw"/><path d="M123 10C108 53 80 86 19 72V37c35 8 53-11 59-39L3-190h52l48 148c12-52 28-100 44-148h51" id="ax"/><g id="A"><use transform="matrix(0.05,0,0,0.05,0,0)" xlink:href="#au"/><use transform="matrix(0.05,0,0,0.05,12,0)" xlink:href="#av"/><use transform="matrix(0.05,0,0,0.05,22.950000000000003,0)" xlink:href="#ap"/><use transform="matrix(0.05,0,0,0.05,29.950000000000003,0)" xlink:href="#an"/><use transform="matrix(0.05,0,0,0.05,35.900000000000006,0)" xlink:href="#au"/><use transform="matrix(0.05,0,0,0.05,47.900000000000006,0)" xlink:href="#an"/><use transform="matrix(0.05,0,0,0.05,53.85,0)" xlink:href="#ap"/><use transform="matrix(0.05,0,0,0.05,60.85,0)" xlink:href="#ar"/><use transform="matrix(0.05,0,0,0.05,70.85000000000001,0)" xlink:href="#an"/><use transform="matrix(0.05,0,0,0.05,76.80000000000001,0)" xlink:href="#ao"/><use transform="matrix(0.05,0,0,0.05,86.80000000000001,0)" xlink:href="#aw"/><use transform="matrix(0.05,0,0,0.05,97.75000000000001,0)" xlink:href="#ax"/></g><path fill="#3a414a" d="M96-169c-40 0-48 33-48 73s9 75 48 75c24 0 41-14 43-38l32 2c-6 37-31 61-74 61-59 0-76-41-82-99-10-93 101-131 147-64 4 7 5 14 7 22l-32 3c-4-21-16-35-41-35" id="ay"/><g id="B"><use transform="matrix(0.06172839506172839,0,0,0.06172839506172839,0,0)" xlink:href="#ay"/><use transform="matrix(0.06172839506172839,0,0,0.06172839506172839,11.11111111111111,0)" xlink:href="#aj"/><use transform="matrix(0.06172839506172839,0,0,0.06172839506172839,23.45679012345679,0)" xlink:href="#O"/><use transform="matrix(0.06172839506172839,0,0,0.06172839506172839,34.5679012345679,0)" xlink:href="#U"/><use transform="matrix(0.06172839506172839,0,0,0.06172839506172839,40.74074074074074,0)" xlink:href="#P"/><use transform="matrix(0.06172839506172839,0,0,0.06172839506172839,53.08641975308642,0)" xlink:href="#Y"/><use transform="matrix(0.06172839506172839,0,0,0.06172839506172839,71.5432098765432,0)" xlink:href="#ag"/><use transform="matrix(0.06172839506172839,0,0,0.06172839506172839,86.35802469135801,0)" xlink:href="#P"/><use transform="matrix(0.06172839506172839,0,0,0.06172839506172839,98.7037037037037,0)" xlink:href="#N"/><use transform="matrix(0.06172839506172839,0,0,0.06172839506172839,106.04938271604938,0)" xlink:href="#U"/><use transform="matrix(0.06172839506172839,0,0,0.06172839506172839,112.22222222222221,0)" xlink:href="#Z"/><use transform="matrix(0.06172839506172839,0,0,0.06172839506172839,119.5679012345679,0)" xlink:href="#R"/><use transform="matrix(0.06172839506172839,0,0,0.06172839506172839,131.91358024691357,0)" xlink:href="#M"/><use transform="matrix(0.06172839506172839,0,0,0.06172839506172839,144.25925925925924,0)" xlink:href="#P"/><use transform="matrix(0.06172839506172839,0,0,0.06172839506172839,156.6049382716049,0)" xlink:href="#R"/><use transform="matrix(0.06172839506172839,0,0,0.06172839506172839,168.95061728395058,0)" xlink:href="#ae"/><use transform="matrix(0.06172839506172839,0,0,0.06172839506172839,173.8271604938271,0)" xlink:href="#M"/><use transform="matrix(0.06172839506172839,0,0,0.06172839506172839,186.17283950617278,0)" xlink:href="#aa"/></g><g id="C"><use transform="matrix(0.06172839506172839,0,0,0.06172839506172839,0,0)" xlink:href="#X"/><use transform="matrix(0.06172839506172839,0,0,0.06172839506172839,15.987654320987653,0)" xlink:href="#I"/><use transform="matrix(0.06172839506172839,0,0,0.06172839506172839,28.333333333333332,0)" xlink:href="#Y"/><use transform="matrix(0.06172839506172839,0,0,0.06172839506172839,46.79012345679012,0)" xlink:href="#M"/><use transform="matrix(0.06172839506172839,0,0,0.06172839506172839,59.1358024691358,0)" xlink:href="#ag"/><use transform="matrix(0.06172839506172839,0,0,0.06172839506172839,73.9506172839506,0)" xlink:href="#P"/><use transform="matrix(0.06172839506172839,0,0,0.06172839506172839,86.29629629629629,0)" xlink:href="#N"/><use transform="matrix(0.06172839506172839,0,0,0.06172839506172839,93.64197530864197,0)" xlink:href="#U"/><use transform="matrix(0.06172839506172839,0,0,0.06172839506172839,99.81481481481481,0)" xlink:href="#ag"/><use transform="matrix(0.06172839506172839,0,0,0.06172839506172839,114.62962962962962,0)" xlink:href="#U"/><use transform="matrix(0.06172839506172839,0,0,0.06172839506172839,120.80246913580245,0)" xlink:href="#N"/><use transform="matrix(0.06172839506172839,0,0,0.06172839506172839,128.14814814814812,0)" xlink:href="#I"/><use transform="matrix(0.06172839506172839,0,0,0.06172839506172839,140.4938271604938,0)" xlink:href="#U"/><use transform="matrix(0.06172839506172839,0,0,0.06172839506172839,146.66666666666663,0)" xlink:href="#M"/><use transform="matrix(0.06172839506172839,0,0,0.06172839506172839,159.0123456790123,0)" xlink:href="#S"/><use transform="matrix(0.06172839506172839,0,0,0.06172839506172839,171.35802469135797,0)" xlink:href="#ah"/></g><g id="D"><use transform="matrix(0.06172839506172839,0,0,0.06172839506172839,0,0)" xlink:href="#ab"/><use transform="matrix(0.06172839506172839,0,0,0.06172839506172839,14.814814814814813,0)" xlink:href="#S"/><use transform="matrix(0.06172839506172839,0,0,0.06172839506172839,27.160493827160494,0)" xlink:href="#M"/><use transform="matrix(0.06172839506172839,0,0,0.06172839506172839,39.50617283950617,0)" xlink:href="#ag"/><use transform="matrix(0.06172839506172839,0,0,0.06172839506172839,54.32098765432099,0)" xlink:href="#P"/><use transform="matrix(0.06172839506172839,0,0,0.06172839506172839,66.66666666666667,0)" xlink:href="#N"/><use transform="matrix(0.06172839506172839,0,0,0.06172839506172839,74.01234567901236,0)" xlink:href="#U"/><use transform="matrix(0.06172839506172839,0,0,0.06172839506172839,80.18518518518519,0)" xlink:href="#ag"/><use transform="matrix(0.06172839506172839,0,0,0.06172839506172839,95,0)" xlink:href="#U"/><use transform="matrix(0.06172839506172839,0,0,0.06172839506172839,101.17283950617283,0)" xlink:href="#N"/><use transform="matrix(0.06172839506172839,0,0,0.06172839506172839,108.51851851851852,0)" xlink:href="#I"/><use transform="matrix(0.06172839506172839,0,0,0.06172839506172839,120.8641975308642,0)" xlink:href="#U"/><use transform="matrix(0.06172839506172839,0,0,0.06172839506172839,127.03703703703702,0)" xlink:href="#M"/><use transform="matrix(0.06172839506172839,0,0,0.06172839506172839,139.3827160493827,0)" xlink:href="#S"/><use transform="matrix(0.06172839506172839,0,0,0.06172839506172839,151.72839506172838,0)" xlink:href="#ah"/></g><g id="E"><use transform="matrix(0.06172839506172839,0,0,0.06172839506172839,0,0)" xlink:href="#ac"/><use transform="matrix(0.06172839506172839,0,0,0.06172839506172839,15.987654320987653,0)" xlink:href="#M"/><use transform="matrix(0.06172839506172839,0,0,0.06172839506172839,28.333333333333332,0)" xlink:href="#J"/><use transform="matrix(0.06172839506172839,0,0,0.06172839506172839,33.20987654320987,0)" xlink:href="#S"/><use transform="matrix(0.06172839506172839,0,0,0.06172839506172839,45.55555555555555,0)" xlink:href="#T"/><use transform="matrix(0.06172839506172839,0,0,0.06172839506172839,57.90123456790123,0)" xlink:href="#U"/><use transform="matrix(0.06172839506172839,0,0,0.06172839506172839,64.07407407407406,0)" xlink:href="#ag"/><use transform="matrix(0.06172839506172839,0,0,0.06172839506172839,78.88888888888887,0)" xlink:href="#P"/><use transform="matrix(0.06172839506172839,0,0,0.06172839506172839,91.23456790123456,0)" xlink:href="#N"/><use transform="matrix(0.06172839506172839,0,0,0.06172839506172839,98.58024691358024,0)" xlink:href="#U"/><use transform="matrix(0.06172839506172839,0,0,0.06172839506172839,104.75308641975307,0)" xlink:href="#ag"/><use transform="matrix(0.06172839506172839,0,0,0.06172839506172839,119.56790123456788,0)" xlink:href="#U"/><use transform="matrix(0.06172839506172839,0,0,0.06172839506172839,125.74074074074072,0)" xlink:href="#N"/><use transform="matrix(0.06172839506172839,0,0,0.06172839506172839,133.0864197530864,0)" xlink:href="#I"/><use transform="matrix(0.06172839506172839,0,0,0.06172839506172839,145.43209876543207,0)" xlink:href="#U"/><use transform="matrix(0.06172839506172839,0,0,0.06172839506172839,151.6049382716049,0)" xlink:href="#M"/><use transform="matrix(0.06172839506172839,0,0,0.06172839506172839,163.95061728395058,0)" xlink:href="#S"/><use transform="matrix(0.06172839506172839,0,0,0.06172839506172839,176.29629629629625,0)" xlink:href="#ah"/></g><g id="F"><use transform="matrix(0.06172839506172839,0,0,0.06172839506172839,0,0)" xlink:href="#ad"/><use transform="matrix(0.06172839506172839,0,0,0.06172839506172839,20.493827160493826,0)" xlink:href="#M"/><use transform="matrix(0.06172839506172839,0,0,0.06172839506172839,32.839506172839506,0)" xlink:href="#J"/><use transform="matrix(0.06172839506172839,0,0,0.06172839506172839,37.71604938271605,0)" xlink:href="#S"/><use transform="matrix(0.06172839506172839,0,0,0.06172839506172839,50.06172839506173,0)" xlink:href="#T"/><use transform="matrix(0.06172839506172839,0,0,0.06172839506172839,62.407407407407405,0)" xlink:href="#U"/><use transform="matrix(0.06172839506172839,0,0,0.06172839506172839,68.58024691358024,0)" xlink:href="#ag"/><use transform="matrix(0.06172839506172839,0,0,0.06172839506172839,83.39506172839505,0)" xlink:href="#P"/><use transform="matrix(0.06172839506172839,0,0,0.06172839506172839,95.74074074074073,0)" xlink:href="#N"/><use transform="matrix(0.06172839506172839,0,0,0.06172839506172839,103.08641975308642,0)" xlink:href="#U"/><use transform="matrix(0.06172839506172839,0,0,0.06172839506172839,109.25925925925925,0)" xlink:href="#ag"/><use transform="matrix(0.06172839506172839,0,0,0.06172839506172839,124.07407407407406,0)" xlink:href="#U"/><use transform="matrix(0.06172839506172839,0,0,0.06172839506172839,130.2469135802469,0)" xlink:href="#N"/><use transform="matrix(0.06172839506172839,0,0,0.06172839506172839,137.59259259259258,0)" xlink:href="#I"/><use transform="matrix(0.06172839506172839,0,0,0.06172839506172839,149.93827160493825,0)" xlink:href="#U"/><use transform="matrix(0.06172839506172839,0,0,0.06172839506172839,156.1111111111111,0)" xlink:href="#M"/><use transform="matrix(0.06172839506172839,0,0,0.06172839506172839,168.45679012345676,0)" xlink:href="#S"/><use transform="matrix(0.06172839506172839,0,0,0.06172839506172839,180.80246913580243,0)" xlink:href="#ah"/></g><path d="M18-100v-36l175-74v27L42-118l151 64v27" id="az"/><path d="M84 4C-5 8 30-112 23-190h32v120c0 31 7 50 39 49 72-2 45-101 50-169h31l1 190h-30c-1-10 1-25-2-33-11 22-28 36-60 37" id="aA"/><path d="M135-143c-3-34-86-38-87 0 15 53 115 12 119 90S17 21 10-45l28-5c4 36 97 45 98 0-10-56-113-15-118-90-4-57 82-63 122-42 12 7 21 19 24 35" id="aB"/><path d="M100-194c63 0 86 42 84 106H49c0 40 14 67 53 68 26 1 43-12 49-29l28 8c-11 28-37 45-77 45C44 4 14-33 15-96c1-61 26-98 85-98zm52 81c6-60-76-77-97-28-3 7-6 17-6 28h103" id="aC"/><path d="M18-27v-27l151-64-151-65v-27l175 74v36" id="aD"/><g id="G"><use transform="matrix(0.05,0,0,0.05,0,0)" xlink:href="#az"/><use transform="matrix(0.05,0,0,0.05,10.5,0)" xlink:href="#az"/><use transform="matrix(0.05,0,0,0.05,21,0)" xlink:href="#aA"/><use transform="matrix(0.05,0,0,0.05,31,0)" xlink:href="#aB"/><use transform="matrix(0.05,0,0,0.05,40,0)" xlink:href="#aC"/><use transform="matrix(0.05,0,0,0.05,50,0)" xlink:href="#aD"/><use transform="matrix(0.05,0,0,0.05,60.5,0)" xlink:href="#aD"/></g></defs></g></svg>